<?xml version="1.0" standalone="no"?>
<!DOCTYPE svg PUBLIC "-//W3C//DTD SVG 20010904//EN"
 "http://www.w3.org/TR/2001/REC-SVG-20010904/DTD/svg10.dtd">
<svg version="1.0" xmlns="http://www.w3.org/2000/svg"
 width="866.000000pt" height="650.000000pt" viewBox="0 0 866.000000 650.000000"
 preserveAspectRatio="xMidYMid meet">

<g transform="translate(0.000000,650.000000) scale(0.100000,-0.100000)"
fill="#000000" stroke="none">
<path d="M1205 4066 c-72 -34 -209 -97 -304 -141 l-173 -80 5 -90 c4 -49 16
-253 29 -452 12 -200 24 -363 27 -363 7 1 554 1180 549 1184 -1 2 -62 -25
-133 -58z"/>
<path d="M1796 4004 c31 -66 136 -292 234 -504 275 -594 268 -581 269 -540 1
19 12 208 26 420 14 212 25 403 25 425 l0 40 -287 134 c-159 74 -296 136 -305
139 -14 3 -5 -23 38 -114z"/>
<path d="M3111 3833 c-13 -38 -43 -122 -66 -188 -84 -234 -278 -781 -301 -847
l-23 -68 112 0 113 0 48 145 48 145 220 -2 221 -3 47 -140 48 -140 111 -3 c61
-1 111 0 111 2 0 3 -6 23 -14 43 -8 21 -58 162 -111 313 -99 283 -271 767
-281 794 -5 13 -28 16 -133 16 l-126 0 -24 -67z m233 -401 c42 -125 76 -233
76 -240 0 -9 -39 -12 -160 -12 -88 0 -160 3 -160 7 0 19 154 473 161 473 4 0
41 -102 83 -228z"/>
<path d="M6370 3315 l0 -585 100 0 100 0 0 585 0 585 -100 0 -100 0 0 -585z"/>
<path d="M1428 3397 l-106 -262 215 -3 c119 -1 218 -1 220 1 5 5 -210 527
-217 527 -3 0 -53 -118 -112 -263z"/>
<path d="M4949 3609 c-148 -17 -262 -131 -299 -300 -8 -35 -11 -101 -8 -175 3
-107 7 -126 34 -185 42 -88 84 -133 159 -170 144 -70 319 -39 390 70 11 17 23
31 28 31 11 0 8 -205 -4 -237 -27 -72 -91 -106 -199 -107 -85 0 -126 16 -176
71 l-31 34 -82 -20 c-45 -10 -84 -21 -87 -23 -10 -11 17 -60 56 -102 70 -75
185 -116 329 -116 135 0 257 46 328 123 72 78 73 86 73 624 l0 473 -100 0 -99
0 -3 -72 -3 -73 -37 51 c-63 85 -147 118 -269 103z m213 -194 c57 -38 90 -115
96 -221 10 -182 -70 -294 -207 -294 -60 1 -122 29 -154 72 -77 100 -71 325 11
412 67 71 174 84 254 31z"/>
<path d="M6920 3609 c-69 -12 -146 -47 -192 -88 -38 -33 -93 -130 -81 -141 5
-4 45 -12 91 -19 l83 -12 40 45 c42 48 84 66 152 66 84 0 137 -44 145 -119 4
-43 2 -51 -19 -65 -14 -9 -78 -22 -152 -31 -178 -22 -247 -45 -307 -103 -68
-67 -87 -151 -56 -254 32 -107 121 -168 255 -176 42 -2 94 1 117 7 53 14 117
57 149 101 l25 34 0 -62 0 -62 101 0 100 0 -3 333 -3 333 -30 60 c-49 96 -144
147 -292 158 -37 2 -93 0 -123 -5z m239 -547 c-3 -65 -9 -86 -31 -119 -49 -75
-174 -106 -257 -64 -44 23 -61 51 -61 104 0 73 46 101 208 128 63 11 118 22
121 24 17 17 23 -4 20 -73z"/>
<path d="M7786 3605 c-66 -23 -86 -42 -143 -131 -10 -16 -12 -7 -12 54 l-1 72
-100 0 -100 0 0 -435 0 -435 105 0 105 0 0 283 c0 317 1 322 74 382 35 27 45
30 127 33 l89 4 0 88 c0 71 -3 89 -16 94 -26 10 -87 6 -128 -9z"/>
<path d="M4184 3597 c-52 -20 -102 -59 -126 -99 -13 -21 -26 -38 -30 -38 -5 0
-8 32 -8 70 l0 70 -95 0 -95 0 0 -52 c-1 -29 -3 -215 -5 -413 -3 -198 -2 -370
1 -382 6 -22 11 -23 105 -23 l98 0 3 298 3 299 25 36 c36 53 86 77 157 77 75
0 118 -26 151 -90 21 -43 22 -53 22 -332 l0 -288 101 0 100 0 -3 333 c-3 322
-4 333 -26 382 -28 60 -73 109 -127 138 -49 25 -201 34 -251 14z"/>
<path d="M5532 3273 l3 -328 28 -60 c52 -112 116 -156 237 -163 41 -2 94 1
117 7 55 15 123 67 148 114 11 20 23 37 28 37 4 0 7 -34 7 -75 l0 -75 100 0
100 0 0 435 0 435 -105 0 -105 0 0 -279 c0 -173 -4 -290 -11 -308 -25 -68 -97
-115 -174 -117 -64 0 -112 26 -142 80 -22 38 -23 47 -23 332 l0 292 -106 0
-105 0 3 -327z"/>
<path d="M1162 2758 c-34 -81 -40 -104 -30 -114 7 -6 102 -62 211 -123 l197
-113 210 119 c115 65 210 123 210 128 0 6 -18 54 -41 108 l-41 97 -337 0 -337
0 -42 -102z"/>
</g>
</svg>
