<svg width="663" height="214" viewBox="0 0 663 214" fill="none" xmlns="http://www.w3.org/2000/svg">
<path d="M10.112 152V62.4H48C53.4613 62.4 58.4533 63.6373 62.976 66.112C67.4987 68.5867 71.0827 72.0427 73.728 76.48C76.4587 80.832 77.824 85.9093 77.824 91.712C77.824 97.344 76.5013 102.379 73.856 106.816C71.296 111.253 67.712 114.709 63.104 117.184C58.5813 119.659 53.376 120.896 47.488 120.896H19.328V152H10.112ZM19.328 112.704H46.464C50.56 112.704 54.272 111.893 57.6 110.272C60.928 108.565 63.5733 106.176 65.536 103.104C67.584 99.9467 68.608 96.1493 68.608 91.712C68.608 87.2747 67.584 83.52 65.536 80.448C63.5733 77.2907 60.928 74.8587 57.6 73.152C54.3573 71.4453 50.7733 70.592 46.848 70.592H19.328V112.704ZM149.73 153.664C143.159 153.664 137.527 152.128 132.834 149.056C128.141 145.984 124.557 141.888 122.082 136.768C119.607 131.563 118.37 125.76 118.37 119.36C118.37 112.875 119.735 107.072 122.466 101.952C125.197 96.7467 129.079 92.6507 134.114 89.664C139.234 86.6773 145.293 85.184 152.29 85.184C159.031 85.184 164.834 86.6773 169.698 89.664C174.647 92.6507 178.445 96.6613 181.09 101.696C183.821 106.731 185.186 112.405 185.186 118.72V152H176.354V137.408H175.97C174.775 139.968 172.983 142.528 170.594 145.088C168.205 147.563 165.261 149.611 161.762 151.232C158.349 152.853 154.338 153.664 149.73 153.664ZM151.65 145.984C156.429 145.984 160.653 144.832 164.322 142.528C167.991 140.139 170.893 136.939 173.026 132.928C175.159 128.832 176.183 124.224 176.098 119.104C176.098 114.069 175.117 109.589 173.154 105.664C171.191 101.739 168.418 98.624 164.834 96.32C161.25 94.016 156.983 92.864 152.034 92.864C146.914 92.864 142.519 94.0587 138.85 96.448C135.181 98.752 132.365 101.952 130.402 106.048C128.439 110.059 127.458 114.624 127.458 119.744C127.458 124.523 128.397 128.917 130.274 132.928C132.151 136.939 134.882 140.139 138.466 142.528C142.135 144.832 146.53 145.984 151.65 145.984ZM235.415 152V105.28C235.415 99.4773 237.036 94.9547 240.279 91.712C243.607 88.384 248.172 86.72 253.975 86.72H265.239V94.528H255.767C252.012 94.528 249.154 95.552 247.191 97.6C245.314 99.648 244.375 102.549 244.375 106.304V152H235.415ZM335.42 153.664C328.849 153.664 323.217 152.128 318.524 149.056C313.831 145.984 310.247 141.888 307.772 136.768C305.297 131.563 304.06 125.76 304.06 119.36C304.06 112.875 305.425 107.072 308.156 101.952C310.887 96.7467 314.769 92.6507 319.804 89.664C324.924 86.6773 330.983 85.184 337.98 85.184C344.721 85.184 350.524 86.6773 355.388 89.664C360.337 92.6507 364.135 96.6613 366.78 101.696C369.511 106.731 370.876 112.405 370.876 118.72V152H362.044V137.408H361.66C360.465 139.968 358.673 142.528 356.284 145.088C353.895 147.563 350.951 149.611 347.452 151.232C344.039 152.853 340.028 153.664 335.42 153.664ZM337.34 145.984C342.119 145.984 346.343 144.832 350.012 142.528C353.681 140.139 356.583 136.939 358.716 132.928C360.849 128.832 361.873 124.224 361.788 119.104C361.788 114.069 360.807 109.589 358.844 105.664C356.881 101.739 354.108 98.624 350.524 96.32C346.94 94.016 342.673 92.864 337.724 92.864C332.604 92.864 328.209 94.0587 324.54 96.448C320.871 98.752 318.055 101.952 316.092 106.048C314.129 110.059 313.148 114.624 313.148 119.744C313.148 124.523 314.087 128.917 315.964 132.928C317.841 136.939 320.572 140.139 324.156 142.528C327.825 144.832 332.22 145.984 337.34 145.984ZM421.361 152V58.56H430.321V152H421.361ZM480.706 152V58.56H489.666V152H480.706ZM573.203 152C566.206 152 559.934 150.72 554.387 148.16C548.926 145.515 544.574 141.76 541.331 136.896C538.174 132.032 536.595 126.187 536.595 119.36C536.595 113.045 537.875 107.328 540.435 102.208C542.995 97.0027 546.579 92.864 551.187 89.792C555.88 86.72 561.342 85.184 567.571 85.184C573.971 85.184 579.39 86.592 583.827 89.408C588.264 92.224 591.635 96.0213 593.939 100.8C596.243 105.579 597.395 110.955 597.395 116.928C597.395 117.781 597.352 118.72 597.267 119.744C597.182 120.768 597.054 121.664 596.883 122.432H546.067C546.323 127.211 547.688 131.221 550.163 134.464C552.638 137.707 555.838 140.139 559.763 141.76C563.774 143.381 568.083 144.192 572.691 144.192H589.203V152H573.203ZM546.067 116.032H588.307C588.307 114.325 588.136 112.448 587.795 110.4C587.454 108.267 586.814 106.176 585.875 104.128C585.022 102.08 583.784 100.203 582.163 98.496C580.627 96.7893 578.622 95.424 576.147 94.4C573.758 93.2907 570.814 92.736 567.315 92.736C564.072 92.736 561.128 93.4187 558.483 94.784C555.838 96.1493 553.619 97.984 551.827 100.288C550.035 102.507 548.627 104.981 547.603 107.712C546.664 110.443 546.152 113.216 546.067 116.032ZM644.146 152V58.56H653.106V152H644.146Z" fill="white"/>
<path d="M409 67.1807C409 53.7155 419.916 42.7998 433.381 42.7998V42.7998C433.802 42.7998 434.143 43.1409 434.143 43.5617V189.619C434.143 203.084 423.227 214 409.762 214V214C409.341 214 409 213.659 409 213.238V67.1807Z" fill="#0066FF"/>
<path d="M471.857 24.3809C471.857 10.9157 482.773 0 496.238 0V0C496.659 0 497 0.341116 497 0.761905V146.819C497 160.284 486.085 171.2 472.619 171.2V171.2C472.199 171.2 471.857 170.859 471.857 170.438V24.3809Z" fill="#0066FF"/>
</svg>
