<svg width="358" height="101" viewBox="0 0 358 101" fill="none" xmlns="http://www.w3.org/2000/svg">
<path d="M31.3158 101C14.5728 101 1 87.4272 1 70.6842V70.6842C1 69.754 1.75405 69 2.68421 69L327.351 69C344.094 69 357.667 82.5728 357.667 99.3158V99.3158C357.667 100.246 356.913 101 355.982 101L31.3158 101Z" fill="#0066FF"/>
<path d="M42.2798 84.524C27.2296 91.9568 8.99932 85.9614 1.29856 71.0466V71.0466C0.859831 70.1969 1.20318 69.1526 2.06053 68.7289L113.982 13.4291C128.992 6.01276 147.172 12.1704 154.586 27.1818V27.1818C154.998 28.0156 154.656 29.0254 153.822 29.4373L42.2798 84.524Z" fill="#0066FF"/>
</svg>
