<svg width="292" height="74" viewBox="0 0 292 74" fill="none" xmlns="http://www.w3.org/2000/svg">
<path d="M94.04 28.64C94.04 23.42 88.96 17.87 80.17 17.87C70.29 17.87 59.45 25.11 57.79 39.56C56.13 54.01 65.18 60.63 74.33 60.63C83.48 60.63 88.27 57.07 93.17 52.31C91.9663 50.6976 90.2196 49.5753 88.2527 49.1507C86.2858 48.7261 84.2317 49.0278 82.47 50C80.7423 50.9611 78.7859 51.4346 76.81 51.37C73.28 51.37 69.68 49.79 69.68 43.2C92.31 40.96 94.04 33.86 94.04 28.64ZM82.83 29.51C82.69 31.13 82.04 33.9 70.58 35.45C73 26.87 77.58 26.23 79.73 26.23C80.157 26.2139 80.5825 26.2891 80.9781 26.4508C81.3736 26.6124 81.7301 26.8567 82.0236 27.1672C82.3171 27.4778 82.5409 27.8474 82.68 28.2515C82.819 28.6555 82.8702 29.0846 82.83 29.51ZM44.5 30.91C44.5 30.91 39.61 46.19 39.24 47.45C39.09 46.15 35.53 18.73 35.53 18.73C27.24 18.73 22.81 24.64 20.47 30.87C20.47 30.87 14.56 46.19 14.05 47.48C14.05 46.29 13.15 31.05 13.15 31.05C12.65 23.42 5.66 18.77 0 18.77L6.85 60.29C15.53 60.29 20.21 54.38 22.66 48.15C22.66 48.15 27.89 34.64 28.1 34.02C28.1 34.6 31.85 60.29 31.85 60.29C40.57 60.29 45.25 54.78 47.78 48.76L59.99 18.76C51.38 18.77 46.84 24.64 44.5 30.91ZM126.03 17.8C120.66 17.8 116.55 20.71 113.09 25L116.19 0C109.06 0 103.26 6.19001 102.19 15.42L96.79 59.98C100.9 59.98 105.25 58.8 107.6 55.77C108.738 57.3084 110.228 58.5523 111.945 59.3977C113.662 60.2432 115.556 60.6657 117.47 60.63C129.47 60.63 137.75 46.63 137.75 33.54C137.61 21.58 131.83 17.8 126.03 17.8ZM124.91 39.23C123.61 46.55 119.61 51.52 115.61 51.52C111.61 51.52 109.96 49.75 109.96 49.75C110.71 43.34 111.18 39.41 112.62 36.03C114.06 32.65 117.49 27.24 121.05 27.24C124.61 27.24 126.17 31.88 124.91 39.23ZM167.75 18.77H159.35V18.34C159.93 12.86 161.22 9.98 165.51 9.51C168.43 9.22 169.73 7.71 170.05 6.05C170.3 4.75 171.1 0.25 171.1 0.25C154.23 0.14 148.94 7.42 147.57 18.52V18.77H147.39C144.66 18.77 141.63 21.87 141.12 25.77L140.94 27.22H146.61L141.9 66.22L140.45 73.22H141.03C148.92 72.93 153.96 66.7 155.03 57.66L158.71 27.29H161.34C163.93 27.29 166.96 24.69 167.5 20.37L167.75 18.77ZM211.42 18.05C201.72 18.05 192.57 25.18 189.76 36.39C186.95 47.6 191.2 60.85 205.47 60.85C219.74 60.85 227.92 47.05 227.92 35.56C227.92 24.07 220.17 18.05 211.42 18.05ZM215.34 38.87C214.84 43.95 212.6 51.66 206.48 51.66C200.36 51.66 201.18 42.66 201.8 38.37C202.44 33.79 205 27.27 210.51 27.27C215.45 27.29 215.92 33.14 215.34 38.87ZM275.8 30.87C275.8 30.87 270.93 46.15 270.54 47.41C270.39 46.11 266.83 18.69 266.83 18.69C258.54 18.69 254.11 24.6 251.77 30.83C251.77 30.83 245.86 46.15 245.35 47.44C245.35 46.25 244.45 31.01 244.45 31.01C243.95 23.38 236.96 18.73 231.3 18.73L238.11 60.29C246.79 60.29 251.48 54.38 253.93 48.15C253.93 48.15 259.15 34.64 259.33 34.02C259.33 34.6 263.08 60.29 263.08 60.29C271.8 60.29 276.48 54.78 279 48.76L291.22 18.76C282.61 18.77 278.1 24.64 275.8 30.91V30.87ZM175.68 0.290001L168.61 57.29L167.17 64.29H167.75C175.35 64.18 180.75 57.52 181.75 49.12L185.83 16.45C187.06 6.45 181.12 0.290001 175.68 0.290001Z" fill="#4353FF"/>
</svg>
